<?xml version="1.0" encoding="UTF-8"?><svg id="Layer_1" xmlns="http://www.w3.org/2000/svg" viewBox="0 0 844.13 443.54"><defs><style>.cls-1{fill:#fff;}</style></defs><g><path class="cls-1" d="M316,287.77h2.03v11.37c0,2.34-.56,5.45-4.92,5.45-4.58,0-5.05-3.12-5.05-5.45v-11.37h2.02v-2.34h-7.02v2.34h2.02v11.37c0,5.45,2.87,7.79,7.95,7.79s7.95-2.34,7.95-7.79v-11.37h2.02v-2.34h-7.01v2.34Z"/><polygon class="cls-1" points="337.66 287.77 339.75 287.77 339.75 301.63 339.68 301.63 329.15 285.43 324.26 285.43 324.26 287.77 326.28 287.77 326.28 304.28 324.26 304.28 324.26 306.62 331.12 306.62 331.12 304.28 329 304.28 329 290.82 329.06 290.82 339.44 306.62 342.49 306.62 342.49 287.77 344.52 287.77 344.52 285.43 337.66 285.43 337.66 287.77"/><polygon class="cls-1" points="345.76 287.77 347.79 287.77 347.79 304.28 345.76 304.28 345.76 306.62 352.77 306.62 352.77 304.28 350.75 304.28 350.75 287.77 352.77 287.77 352.77 285.43 345.76 285.43 345.76 287.77"/><polygon class="cls-1" points="366.79 287.77 369.6 287.77 364.4 303.71 364.37 303.71 358.85 287.77 361.66 287.77 361.66 285.43 354.02 285.43 354.02 287.77 355.58 287.77 362.31 306.78 366.12 306.78 372.62 287.77 374.28 287.77 374.28 285.43 366.79 285.43 366.79 287.77"/><polygon class="cls-1" points="375.52 287.77 377.55 287.77 377.55 304.28 375.52 304.28 375.52 306.62 391.26 306.62 391.26 302.1 388.92 302.1 388.92 304.28 380.51 304.28 380.51 296.8 389.7 296.8 389.7 294.47 380.51 294.47 380.51 287.77 388.92 287.77 388.92 289.94 391.26 289.94 391.26 285.43 375.52 285.43 375.52 287.77"/><path class="cls-1" d="M406.03,297.58c2.87-.5,4.55-2.84,4.55-5.83,0-3.74-2.34-6.33-6.55-6.33h-10.75v2.33h2.02v16.52h-2.02v2.34h7.01v-2.34h-2.02v-6.23h4.52l4.23,6.23h-2.06v2.34h7.32v-2.34h-1.53l-4.74-6.7Zm-7.76-1.87v-7.94h5.45c2.34,0,3.8,1.56,3.8,3.99,0,2.55-1.63,3.95-3.96,3.95h-5.3Z"/><path class="cls-1" d="M423.04,294.62c-2.37-.56-5.45-1.56-5.45-3.96,0-1.65,1.09-3.05,4.21-3.05,1.37,0,2.65,.13,4.83,.59v2.52h2.34v-4.52c-2.65-.77-4.83-1.09-7.17-1.09-4.05,0-7.33,1.6-7.33,5.61,0,3.59,3.24,5.49,6.7,6.39,2.27,.62,5.3,1.34,5.3,3.89,0,1.71-1.25,3.43-4.52,3.43-1.43,0-2.99-.16-5.3-.68v-2.44h-2.33v4.52c2.65,.78,5.3,1.09,7.63,1.09,4.37,0,7.64-2.02,7.64-6.23,0-3.65-3.12-5.29-6.55-6.08Z"/><polygon class="cls-1" points="431.61 287.77 433.64 287.77 433.64 304.28 431.61 304.28 431.61 306.62 438.62 306.62 438.62 304.28 436.6 304.28 436.6 287.77 438.62 287.77 438.62 285.43 431.61 285.43 431.61 287.77"/><path class="cls-1" d="M449.44,285.43h-9.57v2.34h2.02v16.51h-2.02v2.34h9.57c6.95,0,8.97-4.74,8.97-10.75s-2.03-10.44-8.97-10.44Zm0,18.85h-4.58v-16.51h4.58c4.77,0,5.86,3.58,5.86,8.1s-1.09,8.41-5.86,8.41Z"/><path class="cls-1" d="M471.22,285.43h-6.98v2.34h2.28l-5.83,16.52h-1.96v2.34h7.17v-2.34h-2.31l1.46-4.12h7.95l1.37,4.12h-2.4v2.34h7.32v-2.34h-1.71l-6.36-18.86Zm-5.55,12.56l3.46-9.91h.03l3.31,9.91h-6.8Z"/><path class="cls-1" d="M490.1,285.43h-9.56v2.34h2.02v16.51h-2.02v2.34h9.56c6.95,0,8.98-4.74,8.98-10.75s-2.02-10.44-8.98-10.44Zm0,18.85h-4.58v-16.51h4.58c4.77,0,5.86,3.58,5.86,8.1s-1.09,8.41-5.86,8.41Z"/><polygon class="cls-1" points="500.64 287.77 502.66 287.77 502.66 304.28 500.64 304.28 500.64 306.62 516.38 306.62 516.38 302.1 514.03 302.1 514.03 304.28 505.62 304.28 505.62 296.8 514.82 296.8 514.82 294.47 505.62 294.47 505.62 287.77 514.03 287.77 514.03 289.94 516.38 289.94 516.38 285.43 500.64 285.43 500.64 287.77"/><path class="cls-1" d="M533.58,285.43h-9.56v2.34h2.02v16.51h-2.02v2.34h9.56c6.95,0,8.98-4.74,8.98-10.75s-2.02-10.44-8.98-10.44Zm0,18.85h-4.58v-16.51h4.58c4.77,0,5.86,3.58,5.86,8.1s-1.09,8.41-5.86,8.41Z"/><path class="cls-1" d="M554.39,285.11c-7.27,0-9.04,4.83-9.04,10.75s1.77,11.06,9.04,11.06,9.04-5.05,9.04-11.06-1.81-10.75-9.04-10.75Zm0,19.48c-5.08,0-5.92-4.21-5.92-8.73s.84-8.42,5.92-8.42,5.92,3.9,5.92,8.42-.87,8.73-5.92,8.73Z"/><path class="cls-1" d="M583.56,285.43h-6.98v2.34h2.27l-5.83,16.52h-1.96v2.34h7.17v-2.34h-2.31l1.46-4.12h7.95l1.37,4.12h-2.4v2.34h7.32v-2.34h-1.71l-6.36-18.86Zm-5.55,12.56l3.46-9.91h.03l3.31,9.91h-6.8Z"/><polygon class="cls-1" points="606.12 304.28 597.86 304.28 597.86 287.77 599.89 287.77 599.89 285.43 592.88 285.43 592.88 287.77 594.9 287.77 594.9 304.28 592.88 304.28 592.88 306.62 608.46 306.62 608.46 302.1 606.12 302.1 606.12 304.28"/><path class="cls-1" d="M609.86,295.86c0,6.02,2.08,11.07,9.04,11.07,2.99,0,5.17-.77,7.32-1.68v-9.22h-7.01v2.34h4.05v5.05c-1.15,.63-2.58,1.03-4.15,1.03-4.58,0-6.14-3.89-6.14-8.57s1.25-8.41,6.14-8.41c1.41,0,2.65,.13,4.77,.6v2.52h2.34v-4.36c-2.65-.78-4.92-1.09-7.32-1.09-7.26,0-9.04,4.83-9.04,10.75Z"/><path class="cls-1" d="M640.9,285.43h-6.98v2.34h2.27l-5.83,16.52h-1.96v2.34h7.17v-2.34h-2.31l1.47-4.12h7.95l1.37,4.12h-2.4v2.34h7.32v-2.34h-1.71l-6.36-18.86Zm-5.55,12.56l3.46-9.91h.03l3.3,9.91h-6.79Z"/><path class="cls-1" d="M662.96,297.58c2.86-.5,4.55-2.84,4.55-5.83,0-3.74-2.34-6.33-6.54-6.33h-10.75v2.33h2.02v16.52h-2.02v2.34h7.01v-2.34h-2.02v-6.23h4.52l4.24,6.23h-2.06v2.34h7.32v-2.34h-1.52l-4.74-6.7Zm-7.76-1.87v-7.94h5.45c2.34,0,3.8,1.56,3.8,3.99,0,2.55-1.62,3.95-3.96,3.95h-5.3Z"/><polygon class="cls-1" points="681.06 287.77 683.87 287.77 678.67 303.71 678.64 303.71 673.12 287.77 675.93 287.77 675.93 285.43 668.29 285.43 668.29 287.77 669.85 287.77 676.58 306.78 680.38 306.78 686.9 287.77 688.55 287.77 688.55 285.43 681.06 285.43 681.06 287.77"/><polygon class="cls-1" points="705.53 289.94 705.53 285.43 689.79 285.43 689.79 287.77 691.82 287.77 691.82 304.28 689.79 304.28 689.79 306.62 705.53 306.62 705.53 302.1 703.19 302.1 703.19 304.28 694.78 304.28 694.78 296.8 703.97 296.8 703.97 294.47 694.78 294.47 694.78 287.77 703.19 287.77 703.19 289.94 705.53 289.94"/></g><path class="cls-1" d="M207.9,137.21c-38.21,0-69.3,30.77-69.3,68.61,0,.16,0,.34,.01,.51,0,.08-.01,.17-.01,.25,0,.07,0,.13,0,.19,0,.07,0,.13,0,.2,0,.39,.05,.76,.05,1.15,.03,.82,.07,1.63,.12,2.44,.09,1.34,.22,2.66,.4,3.97,.15,1.15,.32,2.29,.53,3.43,.03,.13,.04,.25,.07,.38,5.96,31.87,34.23,56.09,68.13,56.09,38.21,0,69.3-30.78,69.3-68.6s-31.09-68.61-69.3-68.61m-50.14,95.63c3.6,1.64,7.59,2.58,11.8,2.58,15.64,0,28.36-12.59,28.36-28.08s-12.72-28.07-28.36-28.07c-5.53,0-10.68,1.6-15.05,4.32,6.56-7.58,16.28-12.4,27.12-12.4,19.71,0,35.75,15.87,35.75,35.39s-16.04,35.38-35.75,35.38c-9.18,0-17.54-3.48-23.87-9.12m23.87,16.35c23.73,0,43.03-19.12,43.03-42.61s-19.3-42.61-43.03-42.61c-4.6,0-9.03,.73-13.19,2.06,7.7-4.94,16.86-7.85,26.71-7.85,27.16,0,49.26,21.88,49.26,48.77s-22.1,48.77-49.26,48.77c-10.86,0-20.88-3.54-29.03-9.45,4.82,1.85,10.04,2.92,15.52,2.92m26.27,18.01c-9.66,0-18.8-2.2-26.96-6.12,4.55,1.17,9.29,1.86,14.21,1.86,31.19,0,56.56-25.12,56.56-55.99s-25.37-55.99-56.56-55.99c-8.47,0-16.48,1.91-23.7,5.22,10.24-7.39,22.84-11.77,36.45-11.77,34.19,0,62.01,27.54,62.01,61.39s-27.82,61.39-62.01,61.39"/><g><path class="cls-1" d="M419.05,171.39h-35.47v14.01h7.34l-15.47,48.8h-7.12v14.01h31.07v-14.01h-6.55l2.94-9.26h20.68l2.48,9.26h-6.32v14.01h31.97v-14.01h-6.1l-19.43-62.81Zm-19.65,40.55l7.23-24.62h.11l6.67,24.62h-14.01Z"/><polygon class="cls-1" points="470.45 169.13 447.41 169.13 447.41 183.14 453.51 183.14 453.51 234.2 447.41 234.2 447.41 248.21 476.55 248.21 476.55 234.2 470.45 234.2 470.45 169.13"/><path class="cls-1" d="M518.35,235.22l-18.07-.8c-3.62-.22-3.73-3.04-1.35-6.55,2.26,.68,4.86,1.01,6.66,1.01,13.78,0,23.84-5.75,23.84-19.09,0-3.5-.68-5.99-2.15-7.8v-.22h8.14v-10.06h-21.46c-2.26-.67-5.42-1.12-8.36-1.12-14.57,0-24.4,5.98-24.4,19.2,0,6.89,3.5,12.99,9.15,15.82v.22c-10.62,5.42-11.86,15.36-4.63,20.22v.23c-5.88,2.82-8.36,6.1-8.36,10.96,0,9.94,7.45,14.68,24.85,14.68,23.38,0,34.34-6.44,34.34-21.01,0-9.6-6.77-15.25-18.19-15.7Zm-12.77-33.11c4.4,0,7.8,1.93,7.8,7.68s-3.39,7.57-7.8,7.57-7.91-1.81-7.91-7.57,3.28-7.68,7.91-7.68Zm-.79,58.29c-6.22,0-13-.45-13-6.1,0-3.05,1.13-4.07,2.49-5.76l18.64,1.13c3.84,.34,5.76,2.15,5.76,4.52,0,4.75-7.11,6.21-13.89,6.21Z"/><path class="cls-1" d="M372.62,171.39h-30.05v14.01h6.1v35.7c0,8.02-3.05,14.23-12.88,14.23s-13.1-6.21-13.1-14.23v-35.7h6.1v-14.01h-30.16v14.01h6.1v35.7c0,20.22,12.77,28.24,30.95,28.24s30.96-8.02,30.96-28.24v-35.7h5.99v-14.01Z"/></g></svg>